# xmcd
#
# Track frame offsets: 
#        150
#        14488
#        31096
#        49016
#        65407
#        83981
#        99990
#        116424
#        134685
#        154866
#        171537
#        188338
#
# Disc length: 2730 seconds
#
# Revision: 0
# Processed by: cddbd v1.5.2PL0 Copyright (c) Steve Scherf et al.
# Submitted via: ExactAudioCopy v0.99pb4
#
DISCID=980aa80c
DTITLE=이루 - Got to Be
DYEAR=2010
DGENRE=Ballad
TTITLE0=Time (feat. Shorry J by 마이티 마우스)
TTITLE1=하얀눈물
TTITLE2=고백
TTITLE3=늦은 후회
TTITLE4=사랑멜로디 (솔약국집 아들들 OST)
TTITLE5=다시 사랑한다 말해도
TTITLE6=If Only..
TTITLE7=생각해봐요 with 주희 (from 8ight)
TTITLE8=내가 밉다
TTITLE9=이별마저 사랑해줄게
TTITLE10=사랑을 믿어요 (솔약국집 아들들 OST)
TTITLE11=하얀 눈물 (inst.)
EXTD=
EXTT0=
EXTT1=
EXTT2=
EXTT3=
EXTT4=
EXTT5=
EXTT6=
EXTT7=
EXTT8=
EXTT9=
EXTT10=
EXTT11=
PLAYORDER=
